<svg width="32" height="32" viewBox="0 0 32 32" fill="none" xmlns="http://www.w3.org/2000/svg">
  <g>
    <path d="M16 4C9.37258 4 4 9.37258 4 16C4 22.6274 9.37258 28 16 28C22.6274 28 28 22.6274 28 16C28 9.37258 22.6274 4 16 4ZM16 26C10.4772 26 6 21.5228 6 16C6 10.4772 10.4772 6 16 6C21.5228 6 26 10.4772 26 16C26 21.5228 21.5228 26 16 26Z" fill="#0071BC"/>
    <path d="M11 12C11 10.3431 12.3431 9 14 9H18C19.6569 9 21 10.3431 21 12V20C21 21.6569 19.6569 23 18 23H14C12.3431 23 11 21.6569 11 20V12Z" fill="#0071BC"/>
    <rect x="10" y="15" width="12" height="2" rx="1" fill="#0071BC"/>
    <rect x="10" y="18" width="12" height="2" rx="1" fill="#0071BC"/>
  </g>
</svg> 