<?xml version="1.0" encoding="UTF-8"?>
<svg version="1.1" xmlns="http://www.w3.org/2000/svg" width="1200" height="1342">
<path d="M0 0 C0 214.17 0 428.34 0 649 C5.94 647.515 5.94 647.515 12 646 C14.08487423 645.52348147 16.17238994 645.05804875 18.26446533 644.61421204 C19.34955887 644.38290588 20.4346524 644.15159973 21.55262756 643.9132843 C22.69702805 643.67160019 23.84142853 643.42991608 25.02050781 643.1809082 C26.26096359 642.91712372 27.50141937 642.65333923 28.77946472 642.38156128 C32.13981137 641.66702952 35.5007092 640.95512352 38.86172199 640.24373269 C42.38940785 639.49658184 45.91656749 638.74695487 49.44378662 637.99760437 C56.10476455 636.58287895 62.76620432 635.17034096 69.42781806 633.75861281 C77.01960999 632.14964825 84.61087584 630.53820846 92.20210123 628.9265734 C107.80082223 625.61498537 123.40019213 622.3064646 139 619 C138.99831877 618.092194 138.99663753 617.184388 138.99490535 616.24907273 C138.89653312 562.44640945 138.85022226 508.64391606 138.87152898 454.84116013 C138.8740422 448.3811674 138.87612039 441.9211746 138.87792969 435.46118164 C138.8782972 434.17511209 138.87866471 432.88904254 138.87904336 431.56400118 C138.88395678 410.73943616 138.85362805 389.91506399 138.81027745 369.09054991 C138.76658083 347.72302368 138.76075148 326.35572914 138.7900821 304.98817712 C138.80698749 291.80283666 138.79434877 278.61820385 138.74393077 265.43294612 C138.71218756 256.39157696 138.71722329 247.35069447 138.75115602 238.30933513 C138.76964992 233.09243736 138.77195147 227.87685835 138.73056984 222.66006279 C138.69301301 217.88025909 138.70181548 213.10282717 138.74694325 208.32310966 C138.7551516 206.59748273 138.74658502 204.87167392 138.71921335 203.14624455 C138.59147608 194.51597633 138.8777359 188.27429636 144.86659431 181.63686085 C146.55503461 180.06648026 148.26419707 178.51786495 150 177 C151.14822176 175.72893173 152.27915612 174.44149306 153.375 173.125 C161.19755167 164.16165955 169.35385183 155.55145586 177.75 147.125 C178.44657715 146.42383057 179.1431543 145.72266113 179.86083984 145.00024414 C184.41175325 140.46280773 189.13050371 136.19101067 194 132 C195.15646088 130.97827243 196.31145669 129.95488373 197.46484375 128.9296875 C205.94327185 121.4473655 214.69567556 114.43947751 223.75683594 107.67675781 C226.0561175 105.95805235 228.34447486 104.2254286 230.6328125 102.4921875 C273.80987078 70 273.80987078 70 282 70 C282 241.27 282 412.54 282 589 C294.87 586.03 294.87 586.03 308 583 C312.50216988 582.01149998 317.00175543 581.03104366 321.51245117 580.08520508 C323.2204999 579.72381565 323.2204999 579.72381565 324.96305466 579.35512543 C328.65588895 578.57434709 332.34942154 577.79692935 336.04296875 577.01953125 C338.7302166 576.45227222 341.41730014 575.88423664 344.10438538 575.31620789 C349.82250094 574.10779987 355.54095092 572.90098647 361.25964355 571.6953125 C370.3315363 569.78261088 379.40266899 567.86632032 388.47363281 565.94921875 C389.23976513 565.7873038 390.00589744 565.62538885 390.79524589 565.45856738 C393.91170084 564.79992711 397.028153 564.14127365 400.14459598 563.48257673 C404.87601819 562.48254035 409.60748883 561.48273347 414.33899534 560.483096 C445.991317 553.79565778 477.63660124 547.07527386 509.27972794 540.34447861 C513.16540718 539.51796823 517.05112962 538.69166101 520.93685913 537.86538696 C527.11266473 536.55213351 533.28841525 535.23862133 539.46413231 533.92495155 C541.85448951 533.41651907 544.24486123 532.90815487 546.63524818 532.39986229 C560.08138222 529.54061943 573.52611322 526.67494898 586.96847963 523.79805088 C591.24856623 522.88225656 595.52887207 521.96748734 599.80917716 521.05271482 C603.92469262 520.17300688 608.03981033 519.29146747 612.15464211 518.40856743 C615.27821093 517.73888907 618.40233498 517.0718097 621.52636719 516.40429688 C622.66364006 516.15966202 623.80091293 515.91502716 624.97264862 515.66297913 C626.00653969 515.4425444 627.04043076 515.22210968 628.10565186 514.99499512 C629.00766705 514.80175407 629.90968224 514.60851303 630.83903122 514.4094162 C633 514 633 514 635 514 C635.37450448 522.54046744 634.24736395 530.76474744 632.9375 539.1875 C632.82740601 539.90419861 632.71731201 540.62089722 632.60388184 541.35931396 C627.17436646 576.39813423 617.77984574 610.64279885 605.19238281 643.77441406 C604.02953635 646.92009947 602.97318213 650.086494 601.9296875 653.2734375 C601.24773594 655.18334551 600.56300316 657.0922636 599.875 659 C599.61847656 659.86061035 599.36195312 660.7212207 599.09765625 661.60791016 C598.04229833 664.3580157 597.0740387 665.89456145 595 668 C592.14103699 669.0622406 592.14103699 669.0622406 588.49291992 669.88842773 C587.80050988 670.04862365 587.10809984 670.20881956 586.39470768 670.3738699 C583.93372366 670.93522817 581.46769953 671.46896071 579 672 C578.06134346 672.20539021 577.12268692 672.41078041 576.15558624 672.62239456 C568.09031911 674.38497582 560.01252178 676.08651054 551.93359375 677.78515625 C549.23051988 678.35548532 546.52764512 678.92675535 543.82476807 679.49801636 C538.04545122 680.71904566 532.26571731 681.93808269 526.48568726 683.1557312 C517.35217727 685.07991333 508.2195692 687.00835364 499.0871582 688.93774414 C498.31870429 689.10008871 497.55025038 689.26243329 496.75850999 689.42969739 C493.62996397 690.09063967 490.50141947 690.75158913 487.37288421 691.41258234 C482.61173668 692.41849537 477.85052508 693.42410451 473.08926457 694.42948264 C441.33980494 701.13376216 409.59793801 707.87357967 377.85846013 714.62493855 C373.09781847 715.63757369 368.33711992 716.64994095 363.5763855 717.66213989 C357.1465661 719.0292181 350.71680657 720.39657753 344.28710175 721.76419449 C341.96134162 722.25888791 339.63557214 722.75353736 337.30979156 723.24813461 C335.14653137 723.70821281 332.98330431 724.16844687 330.82011223 724.62884521 C328.73815455 725.07177024 326.65607129 725.51410547 324.57385445 725.95581055 C318.83024766 727.17608251 313.09132114 728.41554763 307.35586548 729.6736145 C305.44256172 730.09075006 305.44256172 730.09075006 303.49060535 730.5163126 C301.02173727 731.05501487 298.55375574 731.59780124 296.08681011 732.14523983 C294.9723945 732.38767705 293.85797888 732.63011427 292.70979309 732.87989807 C291.2348524 733.20470075 291.2348524 733.20470075 289.73011494 733.5360651 C287 734 287 734 282 734 C282.33 781.19 282.66 828.38 283 877 C329.7700606 867.08452694 329.7700606 867.08452694 376.5390625 857.1640625 C377.6723866 856.92358712 377.6723866 856.92358712 378.82860613 856.67825365 C413.31921105 849.35971931 447.80698489 842.02789706 482.29350746 834.69015217 C487.55192805 833.57133305 492.81040453 832.45277687 498.06890869 831.33435059 C538.30002335 822.77868116 538.30002335 822.77868116 578.52064705 814.17385864 C581.33622945 813.56971199 584.15191258 812.96603733 586.96763611 812.36254883 C588.72964561 811.98486718 590.4916543 811.60718174 592.25366211 811.22949219 C593.09103629 811.05001289 593.92841047 810.8705336 594.79115963 810.68561554 C599.52031039 809.67155724 604.24863259 808.65374943 608.97627449 807.63268089 C611.08682015 807.17742573 613.19773517 806.72393503 615.30883789 806.27127075 C617.77673506 805.74200263 620.24400194 805.20978177 622.71044922 804.67379761 C623.76256592 804.4490274 624.81468262 804.2242572 625.89868164 803.99267578 C626.79688126 803.79892365 627.69508087 803.60517151 628.62049866 803.4055481 C631 803 631 803 635 803 C635.28269956 811.08344065 634.22901611 818.83559523 633 826.8125 C632.8367775 827.8802063 632.8367775 827.8802063 632.67025757 828.96948242 C626.83858505 866.69003515 617.35230539 904.3164284 602.34141541 939.49386597 C600.91344841 942.93857994 600.91344841 942.93857994 600.29452515 946.47343445 C599.19721599 950.67389003 598.12737708 953.91012869 595 957 C587.57091376 961.0210045 578.60027847 961.97872978 570.3984375 963.5078125 C567.83386384 964.03271668 565.27042542 964.56319363 562.70806885 965.09881592 C557.18666256 966.24456984 551.65795823 967.3463304 546.12188721 968.41888428 C538.00110508 969.99284925 529.89592801 971.63778681 521.7931993 973.30192685 C511.79424218 975.35519477 501.79292725 977.39626843 491.78421021 979.40145874 C491.00841515 979.55688916 490.2326201 979.71231958 489.43331611 979.87246001 C488.27036763 980.10543416 488.27036763 980.10543416 487.08392525 980.34311485 C468.3261504 984.10099891 449.59995348 987.99263772 430.890625 991.984375 C430.22334326 992.12667227 429.55606152 992.26896954 428.86855912 992.41557884 C422.81353634 993.706837 416.75881266 994.99949149 410.70457172 996.29441071 C401.27218884 998.31169702 391.83750567 1000.3179155 382.40112305 1002.31640625 C381.72709627 1002.45916205 381.05306949 1002.60191786 380.35861766 1002.7489996 C377.62320667 1003.32831147 374.88778085 1003.90755328 372.15233439 1004.48669767 C364.53988765 1006.09840342 356.92783693 1007.71197545 349.31591797 1009.32617188 C348.26971635 1009.54802957 348.26971635 1009.54802957 347.20237935 1009.77436924 C317.62325148 1016.04739958 288.04912351 1022.34399658 258.47450924 1028.63826466 C256.21097667 1029.12000355 253.94744193 1029.60173223 251.68390656 1030.08345795 C250.20563246 1030.39806588 248.72735843 1030.71267413 247.24908447 1031.02728271 C246.16229479 1031.25857453 246.16229479 1031.25857453 245.05354977 1031.4945389 C241.4618767 1032.258933 237.87021403 1033.02337588 234.27857208 1033.78791618 C228.10169717 1035.10274833 221.92479245 1036.41743811 215.74760342 1037.73079383 C203.87323444 1040.2554764 191.99932704 1042.78204685 180.13096523 1045.3348484 C175.67959468 1046.29216655 171.22764698 1047.24678436 166.77565956 1048.2012291 C163.76354672 1048.84833252 160.7523989 1049.49979535 157.74125671 1050.15139771 C155.95426457 1050.5346012 154.16722445 1050.91758108 152.38012695 1051.30029297 C151.1798949 1051.56222506 151.1798949 1051.56222506 149.95541573 1051.8294487 C146.52956782 1052.55857357 143.52161316 1053 140 1053 C140 957.96 140 862.92 140 765 C121.85 768.96 103.7 772.92 85 777 C72.1570429 779.73691613 59.31507384 782.47265794 46.46362305 785.16845703 C42.02887591 786.09872653 37.59539582 787.03491087 33.16212177 787.97217178 C29.66353777 788.71093598 26.16420216 789.44608722 22.6646328 790.18016815 C21.02371391 790.52495761 19.38306256 790.87102313 17.74270058 791.21845245 C15.50152808 791.69273776 13.25935536 792.16196706 11.0168457 792.62988281 C9.12057182 793.02859589 9.12057182 793.02859589 7.18598938 793.43536377 C4 794 4 794 0 794 C0.00553076 795.2920787 0.00553076 795.2920787 0.01117325 796.61026001 C0.09974666 817.62905092 0.16581741 838.64780939 0.20724869 859.66674805 C0.22782024 869.83161142 0.25583673 879.99634974 0.30175781 890.16113281 C0.3417919 899.02708336 0.36747205 907.89294327 0.37635398 916.7589817 C0.38154083 921.44777276 0.39361734 926.1363047 0.42292023 930.82501221 C0.45035209 935.25078053 0.45838979 939.67618643 0.45243073 944.10203171 C0.45351869 945.71433873 0.46130556 947.32665964 0.4768219 948.93889236 C0.7267975 976.28639719 -11.55180407 994.72353056 -26.58659363 1016.56330872 C-32.20287169 1024.7314321 -37.73236233 1032.95800074 -43.26828003 1041.18069458 C-45.1286787 1043.94296204 -46.99090811 1046.70398592 -48.85375977 1049.46459961 C-54.35025606 1057.61073499 -59.84287586 1065.75931156 -65.31106567 1073.92448425 C-67.5501794 1077.26678862 -69.79336049 1080.6063522 -72.03704834 1083.94558716 C-73.07474249 1085.49231662 -74.11051232 1087.04033932 -75.144104 1088.58981323 C-96.24379558 1120.21662799 -120.68887549 1144.48568227 -158.38061523 1154.32666016 C-159.1959117 1154.53983194 -160.01120817 1154.75300373 -160.85121059 1154.97263527 C-172.02189808 1157.83726 -183.31381231 1160.1549934 -194.59765625 1162.5234375 C-197.12752085 1163.05815466 -199.65729314 1163.59330872 -202.1869812 1164.12886047 C-207.62174875 1165.27881469 -213.0571993 1166.42548989 -218.49313354 1167.56991577 C-227.2322413 1169.40984609 -235.96984877 1171.25684175 -244.70727539 1173.10473633 C-247.73618086 1173.74524049 -250.76509817 1174.38568861 -253.79402161 1175.02610779 C-254.93065133 1175.26643426 -254.93065133 1175.26643426 -256.09024328 1175.51161581 C-261.5432505 1176.66448463 -266.99645496 1177.81641752 -272.44975281 1178.96791077 C-304.32239565 1185.69817192 -336.18858237 1192.45873867 -368.0534513 1199.22569805 C-373.40170025 1200.36144785 -378.75002511 1201.49683964 -384.09838867 1202.63204956 C-416.80157817 1209.57354016 -449.50209702 1216.52729442 -482.1953125 1223.515625 C-482.89433567 1223.66503674 -483.59335885 1223.81444848 -484.31356454 1223.96838784 C-498.22722289 1226.94238432 -512.14047225 1229.91828371 -526.05280304 1232.89848518 C-530.75486586 1233.9056055 -535.45707873 1234.91202407 -540.1593132 1235.91834259 C-543.36472771 1236.60467559 -546.56989584 1237.29215069 -549.77505493 1237.97967529 C-551.67106886 1238.38551663 -553.56709468 1238.79130239 -555.46313477 1239.19702148 C-556.32457564 1239.38216655 -557.18601652 1239.56731161 -558.07356167 1239.75806713 C-563.88612646 1241 -563.88612646 1241 -565 1241 C-565.37317825 1232.47846837 -564.24729682 1224.27848037 -562.9375 1215.875 C-562.82773834 1215.16124207 -562.71797668 1214.44748413 -562.60488892 1213.71209717 C-558.66494761 1188.28620195 -552.78835085 1163.53509606 -545 1139 C-544.57533447 1137.63174072 -544.57533447 1137.63174072 -544.14208984 1136.23583984 C-539.36149003 1120.86086004 -533.69190581 1105.64942028 -527 1091 C-526.6853479 1090.17303619 -526.3706958 1089.34607239 -526.04650879 1088.49404907 C-522.82627951 1084.56960472 -518.85658033 1084.33364625 -514.01660156 1083.38232422 C-512.97858147 1083.16100578 -511.94056137 1082.93968735 -510.87108612 1082.71166229 C-507.38144501 1081.9728373 -503.88637016 1081.26402243 -500.390625 1080.5546875 C-497.89790413 1080.03292103 -495.40558234 1079.5092448 -492.91363525 1078.98379517 C-487.53445462 1077.85364566 -482.15289601 1076.73610705 -476.76879883 1075.62963867 C-468.88235018 1074.00867803 -461.00108382 1072.36359006 -453.12105751 1070.7117219 C-449.43940043 1069.93996559 -445.7575651 1069.16906131 -442.07568359 1068.39837646 C-440.97197591 1068.1673473 -440.97197591 1068.1673473 -439.84597111 1067.93165088 C-434.56294147 1066.82632259 -429.27901577 1065.72534578 -423.99462891 1064.62652588 C-404.24160862 1060.5188793 -384.49846901 1056.36756901 -364.765625 1052.1640625 C-364.11676338 1052.02586397 -363.46790177 1051.88766544 -362.79937768 1051.74527907 C-355.62526855 1050.21724085 -348.45144755 1048.6878532 -341.27774048 1047.15792847 C-329.57895267 1044.66342806 -317.8783186 1042.17760971 -306.17783546 1039.69107628 C-300.26243139 1038.43393067 -294.34714286 1037.17624162 -288.43184459 1035.91859829 C-285.07067698 1035.2039905 -281.7095019 1034.48941781 -278.34832764 1033.77484131 C-276.97276557 1033.48239915 -275.59720354 1033.18995683 -274.22164154 1032.89751434 C-230.48109436 1023.5983429 -186.74054718 1014.29917145 -143 1005 C-142.67 945.6 -142.34 886.2 -142 825 C-169.72 830.94 -197.44 836.88 -226 843 C-246.59364185 847.37990727 -267.187281 851.75958856 -287.78384399 856.1257019 C-289.24517999 856.43549751 -290.70651547 856.74529551 -292.16785049 857.05509567 C-292.89909779 857.21011598 -293.63034509 857.36513629 -294.38375139 857.52485418 C-306.91666945 860.18183903 -319.44940237 862.83969665 -331.98190045 865.49866176 C-333.56689564 865.83494149 -335.15189392 866.17120662 -336.73689532 866.50745702 C-359.14309264 871.26092088 -381.54472855 876.03526038 -403.94166565 880.83216476 C-408.29842416 881.76523018 -412.65535588 882.69748487 -417.0123291 883.62954712 C-419.13368354 884.08338905 -421.25503679 884.53723655 -423.37638998 884.99108434 C-424.76875477 885.28896556 -426.16112212 885.58683485 -427.55349207 885.88469195 C-435.63662231 887.61393819 -443.71903787 889.34644671 -451.80032438 891.08428949 C-457.3712158 892.28201406 -462.94318268 893.47466973 -468.51555824 894.66546822 C-470.78429291 895.15124133 -473.05264325 895.63881337 -475.32057762 896.12830925 C-478.39609326 896.79193481 -481.47287283 897.44934831 -484.55004883 898.10522461 C-485.44384562 898.29971695 -486.3376424 898.49420929 -487.25852394 898.69459534 C-491.23331497 899.53540241 -494.90979857 900.25368251 -499 900 C-496.12798683 856.47414525 -484.68417708 813.16022268 -469.3125 772.5 C-468.65362793 770.75686523 -468.65362793 770.75686523 -467.98144531 768.97851562 C-467.14483268 766.8097053 -466.28571594 764.64936248 -465.39830017 762.50083923 C-464.49918888 760.24978888 -463.66954275 757.96906592 -462.92964172 755.66078186 C-461.15323308 750.76994646 -459.7668194 747.00769894 -455.11976624 744.35726929 C-451.33788833 743.20503312 -447.56801534 742.44161566 -443.6796875 741.77734375 C-442.1691369 741.47492389 -440.65963557 741.16722471 -439.15112305 740.85479736 C-435.84073154 740.18025133 -432.52598223 739.54176846 -429.20355225 738.92929077 C-423.72944292 737.91891717 -418.27307678 736.82840325 -412.81689453 735.72583008 C-406.72982735 734.49960227 -400.64176707 733.27951448 -394.54855347 732.08415222 C-377.16418377 728.6709934 -359.8267719 725.05150889 -342.5 721.359375 C-341.82008877 721.2145513 -341.14017754 721.0697276 -340.43966293 720.9205153 C-334.16524231 719.58397593 -327.89111383 718.2460703 -321.61741638 716.90614033 C-311.70132404 714.78844011 -301.78303978 712.68126767 -291.86328125 710.58081055 C-290.44833818 710.28116371 -289.03339576 709.98151384 -287.61845398 709.68186092 C-285.50102329 709.23344367 -283.38359244 708.78502719 -281.2661581 708.33662719 C-258.10860073 703.43227841 -234.9567763 698.50185194 -211.8125 693.53515625 C-210.64298923 693.284224 -209.47347847 693.03329174 -208.26852798 692.77475548 C-197.29906578 690.42083194 -186.33020309 688.0641506 -175.36275864 685.70084286 C-171.47477811 684.86335809 -167.58648071 684.02735138 -163.69812012 683.19163322 C-161.06452658 682.62494081 -158.43142792 682.05598923 -155.79833984 681.48695374 C-154.24172632 681.15230923 -152.68508739 680.81778286 -151.12841797 680.48339844 C-150.07522023 680.25472973 -150.07522023 680.25472973 -149.00074577 680.02144146 C-144.22787447 679 -144.22787447 679 -142 679 C-142.00417692 677.8153817 -142.00835385 676.63076339 -142.01265734 675.41024756 C-142.19603544 623.19694572 -142.36573825 570.98361563 -142.46577454 518.77008057 C-142.46729316 517.97946475 -142.46881179 517.18884894 -142.47037644 516.37427507 C-142.50329922 499.19163684 -142.5337711 482.00899508 -142.56171862 464.82634805 C-142.5754392 456.39985625 -142.58970131 447.97336541 -142.60424805 439.546875 C-142.6056864 438.70834252 -142.60712475 437.86981003 -142.60860668 437.00586747 C-142.65547298 409.83159317 -142.73809073 382.65757064 -142.83926943 355.48344884 C-142.94306375 327.55607982 -143.01074809 299.62885011 -143.03306489 271.70129146 C-143.03623455 267.75579887 -143.03981655 263.81030676 -143.04364967 259.86481476 C-143.04439133 259.08829326 -143.04513298 258.31177177 -143.04589711 257.51171932 C-143.05889091 245.01692972 -143.10989502 232.52257115 -143.17515237 220.02795725 C-143.23996238 207.46341426 -143.26463555 194.89929811 -143.24851515 182.33459386 C-143.24089015 175.52769505 -143.2523473 168.72213512 -143.31126022 161.91544724 C-143.36481845 155.68192319 -143.36748045 149.45051198 -143.32988784 143.21689036 C-143.32524245 140.96362094 -143.33917898 138.71021933 -143.37371501 136.4572098 C-143.64201007 117.87184602 -143.64201007 117.87184602 -138.14340027 111.3679886 C-135.89972631 109.07320642 -133.4801816 107.03333124 -131 105 C-129.80351267 103.69336043 -128.62838106 102.36588619 -127.5 101 C-116.39853481 88.24902465 -104.80938294 75.52107352 -91.875 64.59375 C-89.59616622 62.65674129 -87.39675343 60.64094375 -85.1875 58.625 C-80.45655599 54.36643466 -75.61544355 50.28248556 -70.63916016 46.31347656 C-69.50145898 45.40182444 -68.36864268 44.48405585 -67.23974609 43.56152344 C-13.87342262 0 -13.87342262 0 0 0 Z " fill="#221E1F" transform="translate(565,0)"/>
<path d="M0 0 C0.37451028 8.54059975 -0.75319523 16.76457075 -2.0625 25.1875 C-2.17226166 25.9032016 -2.28202332 26.6189032 -2.39511108 27.35629272 C-8.50952484 66.88852876 -19.67534651 105.44731063 -34.6875 142.5 C-35.12682861 143.62293457 -35.56615723 144.74586914 -36.01879883 145.90283203 C-36.66498169 147.45139893 -36.66498169 147.45139893 -37.32421875 149.03125 C-37.8824231 150.40120117 -37.8824231 150.40120117 -38.4519043 151.79882812 C-42.16897336 157.08397158 -52.05309788 157.38112753 -58.06811523 158.64428711 C-59.90369853 159.03411207 -59.90369853 159.03411207 -61.77636433 159.43181229 C-65.15702396 160.1496879 -68.53858096 160.86325279 -71.92030048 161.57611632 C-75.54850406 162.34174796 -79.17584493 163.11144607 -82.80328369 163.88069153 C-89.06186593 165.20735553 -95.32096221 166.53157019 -101.58041382 167.85412598 C-111.52873073 169.95614985 -121.47598954 172.06315365 -131.4230957 174.17089844 C-134.80185759 174.88678248 -138.18062783 175.60262708 -141.55940247 176.31845093 C-142.39884539 176.49629651 -143.23828832 176.67414209 -144.1031689 176.85737693 C-150.09495946 178.12673146 -156.08689638 179.39539356 -162.0789032 180.66372681 C-183.21597437 185.13792733 -204.35144798 189.61954642 -225.484375 194.11328125 C-226.14052016 194.25280275 -226.79666533 194.39232426 -227.47269368 194.53607368 C-234.64406597 196.06101604 -241.81535569 197.58634644 -248.98660278 199.11187744 C-256.7024803 200.75325629 -264.41848457 202.39403862 -272.13452148 204.03466797 C-273.4103519 204.30594387 -274.68618231 204.57721977 -276.00067425 204.85671616 C-278.57992789 205.40513448 -281.15918172 205.95355189 -283.73843575 206.50196838 C-288.88816543 207.59695959 -294.03787577 208.69204179 -299.18758678 209.78712082 C-316.56216906 213.48178478 -333.93691704 217.17566908 -351.31171441 220.86932135 C-354.20560115 221.48452417 -357.09948694 222.09973148 -359.99337274 222.71493876 C-370.4996766 224.94845925 -381.00598128 227.18197586 -391.51229477 229.41545105 C-392.49190905 229.62370166 -392.49190905 229.62370166 -393.49131352 229.83615935 C-395.44146524 230.25073049 -397.39161723 230.66530036 -399.34176922 231.07987022 C-401.88676727 231.62090741 -404.43176104 232.16196479 -406.97675037 232.70304298 C-413.06965441 233.99842303 -419.16260867 235.29356557 -425.25569153 236.58810425 C-435.69002804 238.80533424 -446.12384052 241.02490393 -456.55516815 243.25625324 C-461.00023526 244.20704802 -465.44558658 245.15651023 -469.89094543 246.10593987 C-472.95866151 246.76182417 -476.02590349 247.41989386 -479.09313965 248.07801819 C-480.92209437 248.46871339 -482.75107241 248.85929945 -484.58007812 249.24975586 C-485.41184067 249.42895254 -486.24360321 249.60814922 -487.10057068 249.79277611 C-492.77234117 251 -492.77234117 251 -495 251 C-489.8673643 200.14663807 -478.4865643 147.3043332 -456 101 C-455.50775688 99.76975853 -455.50775688 99.76975853 -455.00556946 98.5146637 C-451.96350468 94.70040046 -448.49584509 94.46925264 -443.84277344 93.56591797 C-442.41737826 93.26319253 -442.41737826 93.26319253 -440.96318722 92.95435143 C-437.76571178 92.2804639 -434.56290574 91.63662337 -431.359375 90.9921875 C-429.06884675 90.51537061 -426.77871949 90.03662396 -424.4889679 89.55609131 C-419.53387778 88.52025972 -414.576326 87.49751981 -409.6164856 86.48468018 C-401.64286583 84.85612139 -393.67539892 83.19884599 -385.70874023 81.53662109 C-382.96395691 80.9642971 -380.21912161 80.39222285 -377.47425842 79.82028198 C-376.7883305 79.67734636 -376.10240257 79.53441074 -375.39568895 79.38714373 C-370.45509581 78.35807367 -365.51363416 77.33324239 -360.57176208 76.31033325 C-341.49057268 72.36009444 -322.42175177 68.35531432 -303.36328125 64.296875 C-302.07366171 64.02225937 -300.78404217 63.74764374 -299.45534325 63.46470642 C-292.93872959 62.0766168 -286.42237714 60.68730567 -279.90615845 59.29736328 C-272.0099466 57.61315819 -264.11287016 55.93302893 -256.21557617 54.25390625 C-255.5587172 54.11424155 -254.90185823 53.97457685 -254.22509444 53.83067989 C-251.56562962 53.26521888 -248.90616112 52.69977515 -246.24668556 52.1343646 C-239.5767597 50.71631109 -232.90697567 49.29759101 -226.23719561 47.87885189 C-209.70993485 44.36335267 -193.18238355 40.84922022 -176.65475726 37.33543992 C-174.56596051 36.89136071 -172.4771645 36.44727804 -170.38836861 36.00319481 C-156.1155382 32.968763 -141.84266789 29.93451899 -127.5697428 26.9005326 C-121.7535219 25.66417855 -115.93730798 24.42779167 -110.12109375 23.19140625 C-108.87109526 22.92569132 -107.62109676 22.65997639 -106.33321953 22.38620949 C-91.34986866 19.20111595 -76.36683335 16.01454601 -61.38432312 12.82550049 C-54.60629254 11.38278859 -47.82813395 9.94067861 -41.04993534 8.49875641 C-35.8641233 7.39552014 -30.67849505 6.29142556 -25.49301434 5.18663311 C-22.41458914 4.53096914 -19.3359908 3.87612135 -16.25733757 3.22152901 C-14.8574359 2.9236966 -13.45760919 2.62551155 -12.05786324 2.32694817 C-10.18607017 1.92773637 -8.31399165 1.5298636 -6.44189453 1.13208008 C-5.40598175 0.91151443 -4.37006897 0.69094879 -3.30276489 0.46369934 C-1 0 -1 0 0 0 Z " fill="#221E1F" transform="translate(1200,1091)"/>
</svg>
